<?xml version="1.0" standalone="no"?>
<!DOCTYPE svg PUBLIC "-//W3C//DTD SVG 20010904//EN"
 "http://www.w3.org/TR/2001/REC-SVG-20010904/DTD/svg10.dtd">
<svg version="1.0" xmlns="http://www.w3.org/2000/svg"
 width="512.000000pt" height="512.000000pt" viewBox="0 0 512.000000 512.000000"
 preserveAspectRatio="xMidYMid meet">

<g transform="translate(0.000000,512.000000) scale(0.100000,-0.100000)"
fill="#000000" stroke="none">
<path d="M1408 4944 c-32 -7 -81 -25 -110 -40 -67 -34 -168 -135 -202 -202
-53 -105 -56 -135 -56 -678 l0 -500 -73 -12 c-105 -18 -187 -60 -262 -135 -98
-98 -145 -213 -145 -358 l0 -67 -46 -11 c-162 -41 -299 -183 -339 -352 -22
-95 -22 -1962 0 -2057 30 -128 111 -236 226 -304 123 -73 -19 -69 2154 -66
l1950 3 66 22 c167 57 305 195 362 362 l22 66 3 1232 c3 1346 4 1300 -54 1415
-38 74 -138 171 -215 208 -34 16 -96 35 -136 42 l-73 12 0 260 c0 356 -19 427
-144 552 -122 121 -201 144 -512 144 l-220 0 -12 73 c-33 194 -175 347 -363
392 -91 21 -1732 21 -1821 -1z m1847 -173 c63 -32 124 -93 156 -156 l24 -50 3
-1002 2 -1003 -742 0 -743 1 -135 171 c-74 94 -147 183 -162 199 l-26 29 -216
0 -216 0 0 783 c0 858 -1 841 59 924 35 49 108 101 165 119 32 10 222 12 911
11 l870 -2 50 -24z m890 -486 c73 -37 138 -114 160 -188 13 -47 15 -219 13
-1478 l-3 -1424 -22 -47 c-44 -95 -145 -170 -247 -184 l-46 -7 0 580 c0 353
-4 601 -10 634 -26 138 -127 271 -252 334 -38 19 -85 37 -104 41 l-34 6 0 164
0 164 175 0 c173 0 176 0 200 25 16 15 25 36 25 55 0 19 -9 40 -25 55 -24 25
-27 25 -200 25 l-175 0 0 160 0 160 175 0 c173 0 176 0 200 25 16 15 25 36 25
55 0 19 -9 40 -25 55 -24 25 -27 25 -200 25 l-175 0 0 160 0 160 175 0 c173 0
176 0 200 25 16 15 25 36 25 55 0 19 -9 40 -25 55 -24 25 -27 25 -200 25
l-175 0 0 161 0 160 243 -3 244 -3 58 -30z m-3105 -1085 l0 -160 -121 0 -122
0 6 57 c7 69 53 166 101 212 31 30 68 45 124 50 9 1 12 -37 12 -159z m3551
139 c48 -12 112 -60 149 -111 63 -86 60 -24 60 -1353 0 -1080 -2 -1217 -16
-1266 -43 -145 -150 -243 -299 -274 -66 -13 -91 -14 -147 -5 -85 15 -120 39
-175 118 -58 85 -85 176 -81 276 l3 78 62 20 c129 39 252 154 305 285 l23 58
3 1098 2 1098 38 -7 c20 -3 53 -10 73 -15z m-2926 -739 l158 -200 856 0 c471
-1 875 -5 899 -9 28 -6 56 -20 78 -42 48 -46 94 -143 101 -212 l6 -57 -1722 0
-1721 0 0 223 c0 250 8 297 63 368 46 60 108 101 175 115 40 9 190 13 503 13
l446 1 158 -200z m2097 -1327 c3 -642 4 -649 26 -707 30 -81 75 -148 134 -201
l50 -45 -1673 0 c-1364 1 -1686 3 -1737 14 -73 16 -131 53 -178 115 -65 84
-64 74 -64 808 l0 663 1720 0 1719 0 3 -647z"/>
<path d="M1545 4455 c-16 -15 -25 -36 -25 -55 0 -19 9 -40 25 -55 l24 -25 751
0 751 0 24 25 c33 32 33 78 0 110 l-24 25 -751 0 -751 0 -24 -25z"/>
<path d="M1545 3975 c-16 -15 -25 -36 -25 -55 0 -19 9 -40 25 -55 l24 -25 751
0 751 0 24 25 c33 32 33 78 0 110 l-24 25 -751 0 -751 0 -24 -25z"/>
<path d="M1559 3510 c-9 -5 -22 -23 -29 -40 -16 -38 2 -87 37 -101 32 -12
1474 -12 1506 0 35 14 53 63 37 101 -7 17 -21 35 -31 40 -24 13 -1498 13
-1520 0z"/>
<path d="M1945 3015 c-16 -15 -25 -36 -25 -55 0 -19 9 -40 25 -55 l24 -25 551
0 551 0 24 25 c16 15 25 36 25 55 0 19 -9 40 -25 55 l-24 25 -551 0 -551 0
-24 -25z"/>
</g>
</svg>
